<svg width="99" height="99" viewBox="0 0 99 99" fill="none" xmlns="http://www.w3.org/2000/svg">
<mask id="mask0_672_96" style="mask-type:luminance" maskUnits="userSpaceOnUse" x="0" y="0" width="99" height="99">
<path d="M38.2335 0.575881L0.576172 60.7666L60.7669 98.424L98.4243 38.2332L38.2335 0.575881Z" fill="white"/>
</mask>
<g mask="url(#mask0_672_96)">
<path d="M33.2758 59.8874L33.2755 59.8858L33.2752 59.8837L33.275 59.8825C33.2749 59.8824 33.2748 59.8817 33.2805 59.8807L35.2623 59.7528C35.3132 57.8589 34.9398 56.2757 34.2832 54.956C34.6475 55.0616 35.0193 55.17 35.3988 55.2806C39.2871 56.4143 43.9835 57.7836 49.7034 58.7595C54.722 59.6143 59.0604 58.6181 62.653 56.8357C61.2355 58.141 59.7953 59.2468 58.2748 60.2336C54.5994 62.6186 50.4164 64.3352 44.8249 66.4731L45.3129 68.3986C54.5751 67.1752 61.7613 63.5417 65.8975 59.6246C74.1976 51.764 77.1384 43.2625 77.9997 36.5295C77.9389 43.1665 75.5205 49.326 71.4238 54.491L71.3132 54.6305L71.2575 54.7995C68.4284 63.3852 62.204 74.2721 49.2288 77.7905C38.3156 80.5529 29.2058 78.1059 23.408 73.7801C17.5477 69.4076 15.2435 63.3165 17.275 58.6396M33.2758 59.8874C33.2751 59.884 33.2735 59.8752 33.2706 59.8611C33.2647 59.8329 33.2538 59.784 33.236 59.7164C33.2004 59.5811 33.1373 59.371 33.032 59.1021C32.8214 58.5648 32.4416 57.7913 31.7734 56.9086C30.8828 55.7323 29.6999 54.8093 28.3423 54.2315C26.9847 53.6536 25.4996 53.441 24.0344 53.6146C21.0663 53.9676 18.5045 55.8565 17.2981 58.5854L17.2968 58.5894L17.275 58.6396M33.2758 59.8874L33.2759 59.8885M17.275 58.6396C17.2741 58.6417 17.2734 58.6427 17.2736 58.6422" stroke="url(#paint0_linear_672_96)" stroke-width="2"/>
</g>
<defs>
<linearGradient id="paint0_linear_672_96" x1="47.2753" y1="36.5295" x2="47.2753" y2="78.9608" gradientUnits="userSpaceOnUse">
<stop stop-color="#F0B428"/>
<stop offset="1" stop-color="#EEDBB1"/>
</linearGradient>
</defs>
</svg>
