<svg width="71" height="49" viewBox="0 0 71 49" fill="none" xmlns="http://www.w3.org/2000/svg">
<g clip-path="url(#clip0_672_33)">
<path d="M35.8643 42.8027C30.5858 41.4349 23.8667 37.4051 18.0285 30.3367C27.5755 37.5424 33.0317 41.1259 45.2041 41.9607C39.4341 40.7282 32.0896 37.4829 28.6826 29.2029C25.7089 21.9702 24.363 16.0129 22.9516 11.4499C22.5062 13.5086 21.3091 15.4981 18.7488 17.0057C18.7488 17.0057 19.8927 16.0129 20.7516 13.7569C21.3385 12.2149 21.5119 10.5463 21.2545 8.9166C20.9971 7.28691 20.3179 5.75288 19.2843 4.46686C17.1791 1.84963 13.8452 0.540279 10.5233 1.03684C10.5211 1.03801 10.516 1.03801 10.5111 1.03932C-0.863054 2.74988 -5.98804 24.0387 10.6868 40.0026C20.9147 49.4778 33.8688 48.9157 42.7852 46.7266C53.3371 47.9081 63.8112 44.1751 71 34.358C68.508 36.4753 56.1795 48.0664 35.8643 42.8027Z" fill="url(#paint0_linear_672_33)"/>
</g>
<defs>
<linearGradient id="paint0_linear_672_33" x1="35.5" y1="0.933105" x2="35.5" y2="48.0667" gradientUnits="userSpaceOnUse">
<stop stop-color="#F0B428"/>
<stop offset="1" stop-color="#EEDBB1"/>
</linearGradient>
<clipPath id="clip0_672_33">
<rect width="71" height="49" fill="white"/>
</clipPath>
</defs>
</svg>
