<svg width="77" height="78" viewBox="0 0 77 78" fill="none" xmlns="http://www.w3.org/2000/svg">
<mask id="mask0_28_27" style="mask-type:luminance" maskUnits="userSpaceOnUse" x="0" y="0" width="77" height="78">
<path d="M56.3816 0.420197L0 20.9414L20.5212 77.323L76.9028 56.8018L56.3816 0.420197Z" fill="white"/>
</mask>
<g mask="url(#mask0_28_27)">
<path d="M54.3417 16.3059C51.7948 14.6692 48.7716 13.9362 45.7578 14.2245C42.7441 14.5129 39.9148 15.8059 37.7244 17.8958C35.7584 19.7512 34.2958 22.2053 33.4284 25.0712C30.9197 23.4278 28.2219 22.488 25.5252 22.3359C22.5039 22.1429 19.5054 22.9711 17.0114 24.6874C14.5174 26.4037 12.6727 28.9085 11.7736 31.7994C10.8232 34.8415 10.9459 38.1665 12.1279 41.4139C13.8289 46.0874 18.4822 50.2002 25.9599 53.6441C32.0525 56.4486 38.6668 58.1541 42.0661 58.9209C43.263 59.1889 44.5116 59.1083 45.6642 58.6888C46.8168 58.2693 47.8251 57.5284 48.5698 56.5537C50.6787 53.7821 54.6514 48.2233 57.5159 42.1586C61.0313 34.7161 61.9515 28.5722 60.2504 23.8987C59.0685 20.6513 57.0252 18.0253 54.3417 16.3059Z" fill="#FFFFFF"/>
</g>
</svg>
