<svg width="86" height="86" viewBox="0 0 86 86" fill="none" xmlns="http://www.w3.org/2000/svg">
<mask id="mask0_672_41" style="mask-type:luminance" maskUnits="userSpaceOnUse" x="0" y="0" width="86" height="86">
<path d="M69.0841 85.7747L85.7744 16.7643L16.764 0.0740103L0.0737459 69.0844L69.0841 85.7747Z" fill="white"/>
</mask>
<g mask="url(#mask0_672_41)">
<path d="M55.0309 27.9388L55.0317 27.9403L55.0327 27.9422L55.0332 27.9433C55.0332 27.9434 55.0336 27.944 55.0285 27.9467L53.1889 28.6948C53.7395 30.5076 54.5944 31.8915 55.6346 32.9358C55.2556 32.9509 54.8686 32.9656 54.4736 32.9806C50.4264 33.1347 45.538 33.3208 39.803 34.2038C34.7716 34.9799 30.9709 37.2969 28.1263 40.1239C29.0583 38.4373 30.0749 36.9328 31.2053 35.5159C33.9378 32.091 37.3633 29.1397 41.9919 25.3433L40.92 23.671C32.5199 27.7605 26.8516 33.4801 24.1663 38.5041C18.7779 48.5861 18.6765 57.5813 19.9885 64.2411C17.9474 57.9255 18.2939 51.3173 20.547 45.1219L20.6078 44.9546L20.6072 44.7766C20.5761 35.7369 23.0383 23.4403 34.2351 15.9993C43.7146 9.92757 53.1308 9.36817 59.999 11.6386C66.9412 13.9335 71.0534 18.9835 70.6051 24.0627M55.0309 27.9388C55.0326 27.9419 55.037 27.9498 55.0442 27.9622C55.0586 27.987 55.0844 28.03 55.1227 28.0885C55.1992 28.2057 55.3256 28.385 55.5106 28.6068C55.8802 29.0499 56.4851 29.6636 57.3982 30.2897C58.6151 31.1241 60.0291 31.6256 61.4997 31.7445C62.9704 31.8633 64.4466 31.5954 65.7817 30.9674C68.4858 29.6939 70.3188 27.0918 70.6004 24.1215L70.6003 24.1173L70.6051 24.0627M55.0309 27.9388L55.0304 27.9379M70.6051 24.0627C70.6053 24.0605 70.6057 24.0593 70.6057 24.0598" stroke="url(#paint0_linear_672_41)" stroke-width="2"/>
</g>
<defs>
<linearGradient id="paint0_linear_672_41" x1="44.639" y1="10.4093" x2="44.639" y2="64.2411" gradientUnits="userSpaceOnUse">
<stop stop-color="#F0B428"/>
<stop offset="1" stop-color="#EEDBB1"/>
</linearGradient>
</defs>
</svg>
