<svg width="20" height="20" viewBox="0 0 20 20" fill="none" xmlns="http://www.w3.org/2000/svg">
<g clip-path="url(#clip0_1_2887)">
<path fill-rule="evenodd" clip-rule="evenodd" d="M9.96873 0.304688C11.7716 0.32526 13.4003 0.76835 14.8549 1.63396C16.2921 2.48228 17.4876 3.68514 18.3272 5.1275C19.1875 6.59081 19.6279 8.22939 19.6484 10.0432C19.5973 12.525 18.8146 14.6447 17.3001 16.4023C15.7857 18.1598 13.846 19.2472 11.8381 19.664V12.7059H13.7364L14.1657 9.97153H11.2912V8.18059C11.2753 7.80931 11.3927 7.44458 11.6223 7.15234C11.8521 6.8593 12.2569 6.70528 12.8367 6.69028H14.5725V4.29503C14.5476 4.28701 14.3113 4.25533 13.8635 4.19997C13.3557 4.14055 12.8451 4.10882 12.3338 4.1049C11.1767 4.11024 10.2616 4.43664 9.58846 5.0841C8.91532 5.73137 8.57146 6.66784 8.55688 7.89351V9.97153H6.36938V12.7059H8.55688V19.664C6.09146 19.2472 4.1518 18.1598 2.63735 16.4023C1.1229 14.6447 0.340164 12.525 0.289062 10.0432C0.309508 8.22931 0.749919 6.59073 1.6103 5.1275C2.44986 3.68514 3.64541 2.48228 5.08263 1.63396C6.53714 0.768517 8.16584 0.325427 9.96873 0.304688Z" fill="white"/>
</g>
<defs>
<clipPath id="clip0_1_2887">
<rect width="20" height="20" fill="white"/>
</clipPath>
</defs>
</svg>
